<svg xmlns="http://www.w3.org/2000/svg" width="1200" height="665" viewBox="0 0 1200 665">
  <g id="그룹_477" data-name="그룹 477" transform="translate(-83 -700)">
    <g id="사각형_9" data-name="사각형 9" transform="translate(83 700)" fill="#fff" stroke="#707070" stroke-width="20">
      <rect width="437" height="665" rx="43" stroke="none"/>
      <rect x="10" y="10" width="417" height="645" rx="33" fill="none"/>
    </g>
    <rect id="사각형_682" data-name="사각형 682" width="380" height="109" rx="18" transform="translate(112 731)" fill="#d6d6d6"/>
    <rect id="사각형_683" data-name="사각형 683" width="380" height="187" rx="18" transform="translate(112 853)" fill="#d6d6d6"/>
    <rect id="사각형_684" data-name="사각형 684" width="90" height="137" rx="18" transform="translate(112 1053)" fill="#d6d6d6"/>
    <rect id="사각형_702" data-name="사각형 702" width="90" height="137" rx="18" transform="translate(112 1198)" fill="#d6d6d6"/>
    <rect id="사각형_685" data-name="사각형 685" width="90" height="137" rx="18" transform="translate(209 1053)" fill="#d6d6d6"/>
    <rect id="사각형_701" data-name="사각형 701" width="90" height="137" rx="18" transform="translate(209 1198)" fill="#d6d6d6"/>
    <rect id="사각형_686" data-name="사각형 686" width="90" height="137" rx="18" transform="translate(305 1053)" fill="#d6d6d6"/>
    <rect id="사각형_700" data-name="사각형 700" width="90" height="137" rx="18" transform="translate(305 1198)" fill="#d6d6d6"/>
    <rect id="사각형_687" data-name="사각형 687" width="90" height="137" rx="18" transform="translate(402 1053)" fill="#d6d6d6"/>
    <rect id="사각형_699" data-name="사각형 699" width="90" height="137" rx="18" transform="translate(402 1198)" fill="#d6d6d6"/>
    <g id="사각형_696" data-name="사각형 696" transform="translate(846 700)" fill="#fff" stroke="#707070" stroke-width="20">
      <rect width="437" height="665" rx="43" stroke="none"/>
      <rect x="10" y="10" width="417" height="645" rx="33" fill="none"/>
    </g>
    <rect id="사각형_697" data-name="사각형 697" width="380" height="109" rx="18" transform="translate(875 731)" fill="#d6d6d6"/>
    <rect id="사각형_698" data-name="사각형 698" width="380" height="482" rx="18" transform="translate(875 853)" fill="#d6d6d6"/>
    <text id="배너광고" transform="translate(683 791)" fill="#222" font-size="26" font-family="S-CoreDream-6Bold, S-Core Dream" font-weight="700"><tspan x="-49.92" y="0">배너광고</tspan></text>
    <text id="중간광고" transform="translate(683 955)" fill="#222" font-size="26" font-family="S-CoreDream-6Bold, S-Core Dream" font-weight="700"><tspan x="-49.92" y="0">중간광고</tspan></text>
    <text id="스퀘어광고" transform="translate(683 1106)" fill="#222" font-size="26" font-family="S-CoreDream-6Bold, S-Core Dream" font-weight="700"><tspan x="-62.4" y="0">스퀘어광고</tspan></text>
    <text id="상세광고" transform="translate(683 1257)" fill="#222" font-size="26" font-family="S-CoreDream-6Bold, S-Core Dream" font-weight="700"><tspan x="-49.92" y="0">상세광고</tspan></text>
    <line id="선_261" data-name="선 261" x2="157" transform="translate(441.5 783.5)" fill="none" stroke="#707070" stroke-width="3"/>
    <line id="선_262" data-name="선 262" x2="157" transform="translate(441.5 946.5)" fill="none" stroke="#707070" stroke-width="3"/>
    <line id="선_263" data-name="선 263" x2="157" transform="translate(441.5 1098)" fill="none" stroke="#707070" stroke-width="3"/>
    <line id="선_264" data-name="선 264" x2="157" transform="translate(756 1249)" fill="none" stroke="#707070" stroke-width="3"/>
    <line id="선_265" data-name="선 265" x2="157" transform="translate(756 783)" fill="none" stroke="#707070" stroke-width="3"/>
    <text id="배너광고_클릭시_상세광고로_이동" data-name="배너광고 클릭시 상세광고로 이동" transform="translate(683 834)" fill="#222" font-size="16" font-family="S-CoreDream-4Regular, S-Core Dream"><tspan x="-114.504" y="0">배너광고 클릭시 상세광고로 이동</tspan></text>
    <text id="스퀘어광고_클릭_시_상세광고로_이동" data-name="스퀘어광고 클릭 시 상세광고로 이동" transform="translate(683 999)" fill="#222" font-size="16" font-family="S-CoreDream-4Regular, S-Core Dream"><tspan x="-124.512" y="0">스퀘어광고 클릭 시 상세광고로 이동</tspan></text>
    <text id="한_페이지당_총_8개의_광고가_보이게_되며_클릭시_상세광고로_이동" data-name="한 페이지당 총 8개의 광고가 보이게 되며,
클릭시 상세광고로 이동" transform="translate(683 1151)" fill="#222" font-size="16" font-family="S-CoreDream-4Regular, S-Core Dream"><tspan x="-144.216" y="0">한 페이지당 총 8개의 광고가 보이게 되며,</tspan><tspan x="-81.456" y="26">클릭시 상세광고로 이동</tspan></text>
    <text id="각_광고_클릭시_최종_전면_광고제공" data-name="각 광고 클릭시 최종 전면 광고제공" transform="translate(683 1302)" fill="#222" font-size="16" font-family="S-CoreDream-4Regular, S-Core Dream"><tspan x="-119.16" y="0">각 광고 클릭시 최종 전면 광고제공</tspan></text>
  </g>
</svg>
